<?xml version="1.0" standalone="no"?>
<!DOCTYPE svg PUBLIC "-//W3C//DTD SVG 20010904//EN"
 "http://www.w3.org/TR/2001/REC-SVG-20010904/DTD/svg10.dtd">
<svg version="1.0" xmlns="http://www.w3.org/2000/svg"
 width="128.000000pt" height="128.000000pt" viewBox="0 0 128.000000 128.000000"
 preserveAspectRatio="xMidYMid meet">
<metadata>
icon
</metadata>
<g transform="translate(0.000000,128.000000) scale(0.100000,-0.100000)"
fill="#5841D8" stroke="none">
<path d="M500 1153 c0 -22 -54 -93 -70 -93 -5 0 -21 -5 -37 -11 -15 -6 -28
-10 -28 -9 0 7 -145 -66 -162 -82 -21 -19 -22 -28 -18 -117 2 -53 9 -111 14
-130 8 -25 7 -42 -4 -68 -35 -84 -3 -147 71 -141 29 2 42 9 49 26 7 16 18 22
40 21 l30 -1 -30 -8 c-16 -4 -22 -8 -12 -9 9 0 17 -5 17 -10 0 -5 2 -16 5 -23
4 -10 -6 -18 -32 -27 -33 -10 -46 -9 -96 8 -69 24 -111 16 -105 -21 3 -20 9
-21 95 -22 51 -1 93 -4 93 -8 0 -5 -23 -8 -52 -8 -28 0 -48 -3 -45 -7 4 -3 2
-12 -3 -18 -6 -7 -12 -37 -15 -68 -5 -52 -4 -56 26 -81 28 -24 51 -31 89 -27
8 1 30 18 48 37 l34 36 46 -41 c26 -23 78 -64 116 -91 72 -52 107 -61 149 -39
32 17 127 96 165 138 l34 36 20 -28 c20 -27 107 -80 92 -56 -5 9 -2 10 9 6 20
-8 74 44 83 79 4 14 4 38 0 54 -5 26 -1 33 39 60 48 33 58 63 28 78 -10 5 -27
6 -38 1 -17 -7 -17 -8 8 -8 17 -1 27 -6 27 -16 0 -17 -5 -18 -28 -7 -11 6 -27
4 -42 -4 -24 -13 -23 -14 25 -15 44 0 47 -2 25 -11 -14 -5 -33 -14 -42 -19
-25 -13 -48 -12 -28 1 11 7 -3 10 -45 10 -42 0 -56 3 -45 10 8 5 31 8 50 5 19
-2 27 -2 17 1 -22 7 -12 24 14 24 10 0 19 7 19 14 0 8 11 36 25 62 29 55 31
76 9 95 -12 10 -14 24 -10 63 3 28 9 93 12 144 6 88 5 95 -16 117 -13 14 -60
39 -104 56 -137 53 -176 76 -192 115 -8 19 -12 38 -10 43 9 14 -28 9 -46 -6
-9 -8 -19 -25 -22 -39 l-6 -24 -42 21 -41 21 -29 -22 c-16 -12 -31 -20 -32
-18 -1 1 -13 20 -25 40 -17 29 -28 37 -47 36 -18 -2 -24 -8 -24 -25z m54 -47
c-3 -12 -13 -29 -21 -38 -10 -11 -13 -26 -9 -43 5 -19 3 -25 -5 -20 -6 4 -9
21 -7 37 4 26 3 27 -11 13 -13 -12 -13 -20 -3 -48 10 -29 10 -30 -3 -13 -23
30 -18 69 11 97 20 19 24 30 20 54 l-6 30 20 -24 c14 -16 18 -31 14 -45z m238
38 c-3 -18 3 -33 23 -54 27 -29 28 -31 15 -72 -12 -40 -14 -41 -21 -18 -4 14
-7 19 -8 11 -1 -8 -3 -12 -6 -9 -3 3 -1 17 4 32 7 16 7 26 1 26 -5 0 -17 14
-25 31 -15 28 -15 33 0 55 20 31 23 30 17 -2z m-109 -101 c-6 -74 -9 -84 -28
-77 -11 5 -15 20 -13 58 l1 51 7 -45 7 -45 1 53 c2 43 -1 52 -15 52 -16 1 -16
2 1 15 31 23 43 3 39 -62z m-92 8 c-17 -16 -31 -36 -31 -45 0 -9 -4 -16 -10
-16 -5 0 -10 7 -10 16 0 19 68 90 77 81 3 -4 -8 -20 -26 -36z m163 -3 c26 -37
20 -55 -19 -56 -42 -2 -47 6 -39 57 6 35 9 39 25 31 10 -6 25 -20 33 -32z
m-284 -33 c0 -18 -7 -28 -26 -35 -15 -6 -60 -24 -102 -42 l-75 -31 6 -96 c3
-53 10 -108 15 -122 10 -25 9 -27 -17 -31 -27 -4 -29 -2 -39 56 -6 34 -14 97
-18 141 l-6 80 123 52 c68 29 127 52 132 52 4 1 7 -10 7 -24z m529 -33 l113
-47 -6 -93 c-4 -51 -11 -116 -17 -143 -9 -41 -14 -49 -29 -44 -10 3 -21 1 -25
-5 -3 -5 -24 -10 -46 -10 -27 0 -38 4 -33 11 4 6 20 9 39 6 l33 -5 11 58 c6
31 14 88 18 126 3 38 11 73 17 77 7 5 3 6 -8 3 -11 -4 -61 11 -121 35 -94 39
-101 43 -97 66 3 17 9 22 21 18 9 -3 67 -27 130 -53z m-440 -6 c51 -27 120
-30 184 -8 l59 19 -6 -21 c-3 -11 -6 -33 -6 -48 0 -20 -4 -26 -15 -22 -12 5
-15 -3 -15 -36 0 -25 4 -39 10 -35 17 11 10 -9 -13 -36 -37 -42 -86 -72 -110
-65 -12 3 -35 17 -52 31 -22 19 -24 23 -7 15 21 -10 22 -9 24 47 l2 58 3 -55
c3 -38 7 -50 13 -40 7 11 10 11 10 2 0 -7 -7 -15 -15 -18 -14 -6 -13 -8 2 -20
10 -7 21 -14 26 -14 4 0 7 33 7 74 l0 73 -58 19 -59 19 5 -50 c2 -27 7 -53 11
-57 3 -4 4 13 3 37 -3 28 0 45 7 45 6 0 12 -20 12 -47 l2 -48 7 40 7 40 2 -47
c1 -42 -1 -47 -20 -45 -11 1 -27 13 -34 27 -13 27 -31 180 -20 180 3 0 19 -7
34 -14z m-59 -48 c0 -41 23 -118 45 -152 9 -14 31 -34 48 -45 28 -18 29 -21
11 -21 -13 0 -37 17 -58 40 -34 38 -40 52 -49 110 -3 16 -5 12 -6 -13 -1 -45
23 -101 53 -122 20 -15 20 -15 -6 -15 -21 0 -30 8 -47 43 -12 24 -21 49 -21
56 0 21 -39 90 -57 100 -21 11 -20 13 32 33 55 22 55 22 55 -14z m366 16 c27
-9 50 -18 52 -19 2 -2 -8 -14 -22 -28 -13 -13 -30 -44 -36 -68 -20 -73 -48
-119 -72 -119 l-21 0 21 23 c36 39 72 151 42 132 -5 -3 -10 -15 -10 -26 0 -53
-64 -129 -107 -129 -13 0 -9 6 14 21 49 31 70 75 78 157 4 39 8 72 10 72 1 0
24 -7 51 -16z m-484 -55 c2 -5 12 -11 23 -13 12 -2 20 -11 20 -21 0 -10 6 -20
13 -23 17 -5 15 -32 -3 -32 -9 0 -14 -8 -12 -22 1 -17 -3 -22 -16 -20 -9 2
-20 -4 -23 -13 -8 -19 -30 -20 -38 0 -3 8 -15 15 -26 15 -16 0 -20 4 -15 19 3
12 0 21 -10 25 -19 7 -20 26 0 26 9 0 14 8 12 21 -1 15 4 23 18 25 11 1 21 8
23 13 2 6 10 11 17 11 7 0 15 -5 17 -11z m590 0 c2 -5 12 -11 23 -13 12 -2 21
-12 23 -24 2 -12 8 -22 13 -22 5 0 9 -7 9 -15 0 -8 -5 -15 -11 -15 -5 0 -9
-10 -7 -22 2 -18 -2 -23 -22 -24 -13 -1 -26 -7 -28 -13 -5 -16 -29 -13 -36 4
-3 9 -14 15 -23 13 -12 -2 -18 3 -18 16 0 11 -6 21 -13 24 -6 2 -12 10 -12 17
0 7 6 15 12 17 7 3 13 13 13 24 0 13 6 18 18 16 9 -2 20 4 23 13 7 17 31 20
36 4z m-352 -196 c-14 -3 -31 -10 -38 -16 -10 -8 -16 -7 -21 2 -6 9 -39 12
-124 10 -64 -2 -119 0 -123 4 -4 4 69 6 162 6 93 -1 158 -4 144 -6z m387 -4
c-19 -11 -39 -12 -163 -3 -79 5 -82 5 -102 -20 -16 -21 -28 -26 -65 -26 -43 0
-67 -13 -53 -28 4 -3 28 -9 53 -12 55 -6 72 -26 57 -67 -9 -26 -14 -28 -79
-34 -39 -4 -72 -5 -74 -3 -2 2 2 10 9 19 7 9 29 15 54 15 22 0 47 4 55 9 23
15 2 31 -43 31 -48 0 -66 13 -66 50 0 38 18 50 76 50 72 0 102 13 49 21 -22 3
39 7 135 7 126 1 170 -2 157 -9z m-541 -19 c40 0 59 -5 74 -20 41 -41 38 -108
-6 -137 -31 -20 -165 -30 -146 -11 15 15 16 144 2 153 -16 10 -11 28 6 21 9
-3 40 -6 70 -6z m449 -25 c36 -36 34 -88 -5 -127 -27 -26 -36 -30 -67 -25 -45
8 -71 31 -79 72 -6 34 15 89 38 98 36 15 90 6 113 -18z m-545 5 c0 -5 -19 -10
-42 -10 -32 0 -39 3 -28 10 20 13 70 13 70 0z m-69 -31 c20 -20 19 -48 -3 -76
-24 -30 -98 -2 -98 36 0 28 30 61 56 61 13 0 33 -9 45 -21z m807 9 c7 -7 12
-26 12 -43 0 -38 -16 -55 -51 -55 -28 0 -59 31 -59 59 0 40 69 68 98 39z m-38
-149 c0 -11 -25 -11 -97 -3 -52 7 -52 7 -30 24 12 9 29 19 37 22 17 6 90 -29
90 -43z m-862 -8 c9 -5 28 -14 42 -19 l25 -11 -27 0 c-15 -1 -30 4 -34 10 -3
6 -19 9 -35 5 -15 -3 -31 -2 -33 3 -13 20 30 29 62 12z m185 -26 c3 -6 -3 -19
-13 -28 -18 -15 -21 -14 -39 11 l-20 28 34 1 c19 1 36 -5 38 -12z m107 5 c0
-15 30 -12 31 3 1 6 5 -6 9 -28 5 -22 4 -44 -1 -49 -9 -10 -49 25 -68 62 -10
19 -9 22 9 22 11 0 20 -4 20 -10z m83 -2 c4 -10 8 -9 16 2 8 11 11 0 11 -46 0
-33 5 -65 11 -71 13 -13 4 -33 -16 -33 -12 0 -13 12 -9 59 4 39 3 61 -5 65 -8
5 -11 -10 -11 -48 0 -31 -4 -56 -10 -56 -6 0 -10 30 -10 70 0 64 10 89 23 58z
m80 -55 c15 -1 18 4 14 22 -2 13 0 30 4 37 6 8 9 -5 9 -33 0 -32 -6 -51 -18
-62 -27 -25 -42 -3 -41 57 2 46 2 48 8 16 4 -24 12 -35 24 -37z m74 55 c12 31
23 6 23 -55 0 -64 -16 -103 -42 -103 -4 0 -8 39 -8 88 0 64 3 83 11 72 8 -11
12 -12 16 -2z m56 -8 c-3 -11 0 -27 7 -35 16 -19 -3 -46 -20 -29 -11 11 -2 84
10 84 5 0 6 -9 3 -20z m51 -11 c-10 -21 -19 -28 -26 -21 -15 15 1 52 23 52 19
0 19 -1 3 -31z m146 24 c0 -2 -7 -15 -16 -29 -16 -23 -18 -24 -35 -8 -24 22
-14 43 22 42 16 -1 29 -3 29 -5z m-580 -48 c-38 -38 -44 -51 -41 -80 2 -26 -4
-41 -23 -60 -31 -30 -55 -32 -90 -4 -52 41 -23 129 42 129 15 0 32 -4 38 -9 5
-6 26 5 54 29 61 54 74 50 20 -5z m514 11 c36 -31 46 -34 83 -29 33 4 45 1 62
-16 31 -31 28 -84 -5 -110 -34 -27 -54 -26 -88 0 -23 18 -27 28 -25 60 3 34
-2 44 -41 84 -52 53 -45 59 14 11z m-459 -68 c17 -22 66 -69 109 -104 l80 -63
39 22 c42 24 153 126 181 167 17 24 17 25 31 6 8 -11 15 -24 15 -29 0 -17
-132 -138 -199 -183 l-64 -43 -61 42 c-63 42 -196 169 -196 186 0 6 39 -30 88
-78 48 -49 106 -98 130 -110 23 -12 42 -19 42 -17 0 2 -28 24 -62 49 -67 47
-188 168 -188 186 0 23 26 9 55 -31z m214 -87 c16 -28 -14 -51 -36 -28 -13 13
-14 19 -3 31 17 21 27 20 39 -3z"/>
<path d="M537 951 c5 -20 30 -33 94 -49 28 -7 49 -6 88 8 28 9 54 20 58 24 14
14 -5 14 -42 1 -48 -17 -75 -19 -75 -5 0 6 -11 10 -25 10 -14 0 -42 7 -62 15
-44 19 -42 19 -36 -4z"/>
<path d="M698 874 c-5 -4 -8 -32 -8 -63 0 -39 3 -52 11 -44 5 5 9 34 7 62 -2
29 -6 49 -10 45z"/>
<path d="M336 854 c-32 -31 -14 -84 29 -84 29 0 45 19 45 52 0 42 -45 62 -74
32z m62 -30 c2 -11 -4 -26 -12 -33 -31 -26 -71 14 -45 45 17 21 53 14 57 -12z"/>
<path d="M353 825 c-7 -20 2 -29 21 -22 9 4 13 13 10 22 -8 19 -23 19 -31 0z"/>
<path d="M927 852 c-10 -10 -17 -28 -17 -39 0 -21 29 -53 48 -53 17 0 52 37
52 55 0 19 -35 55 -53 55 -8 0 -21 -8 -30 -18z m58 -37 c0 -25 -4 -31 -26 -33
-29 -3 -44 18 -33 50 4 14 13 18 32 16 23 -2 27 -8 27 -33z"/>
<path d="M943 825 c-7 -20 2 -29 21 -22 9 4 13 13 10 22 -8 19 -23 19 -31 0z"/>
<path d="M438 585 c4 -53 5 -55 31 -55 51 0 80 60 45 94 -8 9 -30 16 -47 16
l-32 0 3 -55z m61 11 c8 -10 8 -16 -3 -25 -10 -9 -16 -8 -26 3 -12 15 -6 36 9
36 5 0 14 -6 20 -14z"/>
<path d="M816 624 c-20 -20 -20 -58 0 -78 18 -19 38 -20 65 -6 22 12 27 68 7
88 -17 17 -54 15 -72 -4z m51 -30 c8 -21 -13 -42 -28 -27 -13 13 -5 43 11 43
6 0 13 -7 17 -16z"/>
<path d="M225 600 c-4 -12 -1 -27 5 -35 27 -33 78 -5 65 35 -9 28 -61 28 -70
0z m53 -17 c-2 -10 -10 -18 -18 -18 -8 0 -16 8 -18 18 -2 12 3 17 18 17 15 0
20 -5 18 -17z"/>
<path d="M1047 619 c-32 -18 -14 -69 25 -69 19 0 42 35 33 50 -12 19 -40 28
-58 19z m32 -46 c-15 -18 -34 -1 -25 22 5 14 9 15 21 5 12 -10 13 -16 4 -27z"/>
<path d="M720 380 c0 -27 5 -50 10 -50 6 0 10 23 10 50 0 28 -4 50 -10 50 -5
0 -10 -22 -10 -50z"/>
<path d="M255 346 c-35 -53 34 -115 79 -70 19 18 21 65 4 82 -21 21 -66 14
-83 -12z m69 -18 c7 -38 2 -48 -24 -41 -16 4 -20 13 -18 37 3 44 33 47 42 4z"/>
<path d="M975 346 c-30 -45 13 -98 66 -81 55 18 38 105 -21 105 -20 0 -35 -8
-45 -24z m69 8 c9 -3 16 -11 16 -17 0 -7 -4 -7 -12 1 -17 17 -45 15 -57 -5 -9
-15 -10 -16 -11 -2 0 28 26 37 64 23z m-4 -45 c0 -13 4 -18 13 -13 8 5 8 2 -2
-9 -21 -27 -71 -16 -71 16 0 5 7 1 16 -7 8 -9 23 -16 32 -15 12 0 11 3 -5 9
-28 12 -30 40 -3 40 14 0 20 -7 20 -21z"/>
<path d="M792 246 c-28 -24 -67 -54 -86 -66 -33 -20 -53 -41 -23 -24 50 29
180 134 166 134 -3 0 -28 -20 -57 -44z"/>
</g>
</svg>
